<svg width="32" height="32" viewBox="0 0 32 32" fill="none" xmlns="http://www.w3.org/2000/svg">
<path d="M16 0C13.6037 -2.85757e-08 11.238 0.538258 9.07756 1.57503C6.91714 2.6118 5.01719 4.1206 3.518 5.99002C2.01881 7.85945 0.958675 10.0417 0.415875 12.3758C-0.126924 14.7098 -0.138524 17.1359 0.381932 19.475C0.902387 21.8142 1.94161 24.0065 3.42285 25.8902C4.90409 27.7738 6.78953 29.3007 8.93994 30.3581C11.0903 31.4155 13.4508 31.9764 15.847 31.9993C18.2432 32.0222 20.614 31.5066 22.7842 30.4905L19.3921 23.2453C18.307 23.7533 17.1216 24.0111 15.9235 23.9996C14.7254 23.9882 13.5452 23.7078 12.47 23.1791C11.3948 22.6504 10.452 21.8869 9.71142 20.9451C8.9708 20.0032 8.45119 18.9071 8.19097 17.7375C7.93074 16.568 7.93654 15.3549 8.20794 14.1879C8.47934 13.0209 9.00941 11.9297 9.759 10.995C10.5086 10.0603 11.4586 9.3059 12.5388 8.78751C13.619 8.26913 14.8018 8 16 8V0Z" fill="#5CE1E6"/>
<path d="M22.4548 1.35982C20.5323 0.512153 18.4616 0.0514712 16.3609 0.00407172C14.2603 -0.0433277 12.1709 0.323484 10.2121 1.08356C8.25323 1.84364 6.46327 2.9821 4.94439 4.43395C3.42552 5.88579 2.20748 7.62258 1.35981 9.54516L8.67991 12.7726C9.10374 11.8113 9.71276 10.9429 10.4722 10.217C11.2316 9.49105 12.1266 8.92182 13.106 8.54178C14.0855 8.16174 15.1302 7.97834 16.1805 8.00204C17.2308 8.02574 18.2661 8.25608 19.2274 8.67991L22.4548 1.35982Z" fill="#5CE1E6"/>
<path d="M21 16C21 17.3261 20.4732 18.5979 19.5355 19.5355C18.5979 20.4732 17.3261 21 16 21C14.6739 21 13.4021 20.4732 12.4645 19.5355C11.5268 18.5979 11 17.3261 11 16L16 16H21Z" fill="white"/>
<path d="M21 16C21 15.3434 20.8707 14.6932 20.6194 14.0866C20.3681 13.48 19.9998 12.9288 19.5355 12.4645C19.0712 12.0002 18.52 11.6319 17.9134 11.3806C17.3068 11.1293 16.6566 11 16 11C15.3434 11 14.6932 11.1293 14.0866 11.3806C13.48 11.6319 12.9288 12.0002 12.4645 12.4645C12.0002 12.9288 11.6319 13.48 11.3806 14.0866C11.1293 14.6932 11 15.3434 11 16L16 16H21Z" fill="white"/>
</svg>
