<svg width="149" height="32" viewBox="0 0 149 32" fill="none" xmlns="http://www.w3.org/2000/svg">
<path d="M27.63 16.7C27.63 15.464 27.906 14.36 28.458 13.388C29.022 12.404 29.784 11.642 30.744 11.102C31.716 10.55 32.802 10.274 34.002 10.274C35.406 10.274 36.636 10.634 37.692 11.354C38.748 12.074 39.486 13.07 39.906 14.342H37.008C36.72 13.742 36.312 13.292 35.784 12.992C35.268 12.692 34.668 12.542 33.984 12.542C33.252 12.542 32.598 12.716 32.022 13.064C31.458 13.4 31.014 13.88 30.69 14.504C30.378 15.128 30.222 15.86 30.222 16.7C30.222 17.528 30.378 18.26 30.69 18.896C31.014 19.52 31.458 20.006 32.022 20.354C32.598 20.69 33.252 20.858 33.984 20.858C34.668 20.858 35.268 20.708 35.784 20.408C36.312 20.096 36.72 19.64 37.008 19.04H39.906C39.486 20.324 38.748 21.326 37.692 22.046C36.648 22.754 35.418 23.108 34.002 23.108C32.802 23.108 31.716 22.838 30.744 22.298C29.784 21.746 29.022 20.984 28.458 20.012C27.906 19.04 27.63 17.936 27.63 16.7ZM46.4864 23.162C45.5264 23.162 44.6624 22.952 43.8944 22.532C43.1264 22.1 42.5204 21.494 42.0764 20.714C41.6444 19.934 41.4284 19.034 41.4284 18.014C41.4284 16.994 41.6504 16.094 42.0944 15.314C42.5504 14.534 43.1684 13.934 43.9484 13.514C44.7284 13.082 45.5984 12.866 46.5584 12.866C47.5184 12.866 48.3884 13.082 49.1684 13.514C49.9484 13.934 50.5604 14.534 51.0044 15.314C51.4604 16.094 51.6884 16.994 51.6884 18.014C51.6884 19.034 51.4544 19.934 50.9864 20.714C50.5304 21.494 49.9064 22.1 49.1144 22.532C48.3344 22.952 47.4584 23.162 46.4864 23.162ZM46.4864 20.966C46.9424 20.966 47.3684 20.858 47.7644 20.642C48.1724 20.414 48.4964 20.078 48.7364 19.634C48.9764 19.19 49.0964 18.65 49.0964 18.014C49.0964 17.066 48.8444 16.34 48.3404 15.836C47.8484 15.32 47.2424 15.062 46.5224 15.062C45.8024 15.062 45.1964 15.32 44.7044 15.836C44.2244 16.34 43.9844 17.066 43.9844 18.014C43.9844 18.962 44.2184 19.694 44.6864 20.21C45.1664 20.714 45.7664 20.966 46.4864 20.966ZM52.8889 17.978C52.8889 16.97 53.0869 16.076 53.4829 15.296C53.8909 14.516 54.4429 13.916 55.1389 13.496C55.8349 13.076 56.6089 12.866 57.4609 12.866C58.1089 12.866 58.7269 13.01 59.3149 13.298C59.9029 13.574 60.3709 13.946 60.7189 14.414V9.68H63.2749V23H60.7189V21.524C60.4069 22.016 59.9689 22.412 59.4049 22.712C58.8409 23.012 58.1869 23.162 57.4429 23.162C56.6029 23.162 55.8349 22.946 55.1389 22.514C54.4429 22.082 53.8909 21.476 53.4829 20.696C53.0869 19.904 52.8889 18.998 52.8889 17.978ZM60.7369 18.014C60.7369 17.402 60.6169 16.88 60.3769 16.448C60.1369 16.004 59.8129 15.668 59.4049 15.44C58.9969 15.2 58.5589 15.08 58.0909 15.08C57.6229 15.08 57.1909 15.194 56.7949 15.422C56.3989 15.65 56.0749 15.986 55.8229 16.43C55.5829 16.862 55.4629 17.378 55.4629 17.978C55.4629 18.578 55.5829 19.106 55.8229 19.562C56.0749 20.006 56.3989 20.348 56.7949 20.588C57.2029 20.828 57.6349 20.948 58.0909 20.948C58.5589 20.948 58.9969 20.834 59.4049 20.606C59.8129 20.366 60.1369 20.03 60.3769 19.598C60.6169 19.154 60.7369 18.626 60.7369 18.014ZM75.0061 17.798C75.0061 18.158 74.9821 18.482 74.9341 18.77H67.6441C67.7041 19.49 67.9561 20.054 68.4001 20.462C68.8441 20.87 69.3901 21.074 70.0381 21.074C70.9741 21.074 71.6401 20.672 72.0361 19.868H74.7541C74.4661 20.828 73.9141 21.62 73.0981 22.244C72.2821 22.856 71.2801 23.162 70.0921 23.162C69.1321 23.162 68.2681 22.952 67.5001 22.532C66.7441 22.1 66.1501 21.494 65.7181 20.714C65.2981 19.934 65.0881 19.034 65.0881 18.014C65.0881 16.982 65.2981 16.076 65.7181 15.296C66.1381 14.516 66.7261 13.916 67.4821 13.496C68.2381 13.076 69.1081 12.866 70.0921 12.866C71.0401 12.866 71.8861 13.07 72.6301 13.478C73.3861 13.886 73.9681 14.468 74.3761 15.224C74.7961 15.968 75.0061 16.826 75.0061 17.798ZM72.3961 17.078C72.3841 16.43 72.1501 15.914 71.6941 15.53C71.2381 15.134 70.6801 14.936 70.0201 14.936C69.3961 14.936 68.8681 15.128 68.4361 15.512C68.0161 15.884 67.7581 16.406 67.6621 17.078H72.3961ZM79.3655 14.576C79.6895 14.048 80.1095 13.634 80.6255 13.334C81.1535 13.034 81.7535 12.884 82.4255 12.884V15.53H81.7595C80.9675 15.53 80.3675 15.716 79.9595 16.088C79.5635 16.46 79.3655 17.108 79.3655 18.032V23H76.8455V13.028H79.3655V14.576ZM84.6269 10.436H87.2729L85.3289 14.972H83.6009L84.6269 10.436ZM92.8959 23.162C92.0799 23.162 91.3479 23.018 90.6999 22.73C90.0519 22.43 89.5359 22.028 89.1519 21.524C88.7799 21.02 88.5759 20.462 88.5399 19.85H91.0779C91.1259 20.234 91.3119 20.552 91.6359 20.804C91.9719 21.056 92.3859 21.182 92.8779 21.182C93.3579 21.182 93.7299 21.086 93.9939 20.894C94.2699 20.702 94.4079 20.456 94.4079 20.156C94.4079 19.832 94.2399 19.592 93.9039 19.436C93.5799 19.268 93.0579 19.088 92.3379 18.896C91.5939 18.716 90.9819 18.53 90.5019 18.338C90.0339 18.146 89.6259 17.852 89.2779 17.456C88.9419 17.06 88.7739 16.526 88.7739 15.854C88.7739 15.302 88.9299 14.798 89.2419 14.342C89.5659 13.886 90.0219 13.526 90.6099 13.262C91.2099 12.998 91.9119 12.866 92.7159 12.866C93.9039 12.866 94.8519 13.166 95.5599 13.766C96.2679 14.354 96.6579 15.152 96.7299 16.16H94.3179C94.2819 15.764 94.1139 15.452 93.8139 15.224C93.5259 14.984 93.1359 14.864 92.6439 14.864C92.1879 14.864 91.8339 14.948 91.5819 15.116C91.3419 15.284 91.2219 15.518 91.2219 15.818C91.2219 16.154 91.3899 16.412 91.7259 16.592C92.0619 16.76 92.5839 16.934 93.2919 17.114C94.0119 17.294 94.6059 17.48 95.0739 17.672C95.5419 17.864 95.9439 18.164 96.2799 18.572C96.6279 18.968 96.8079 19.496 96.8199 20.156C96.8199 20.732 96.6579 21.248 96.3339 21.704C96.0219 22.16 95.5659 22.52 94.9659 22.784C94.3779 23.036 93.6879 23.162 92.8959 23.162Z" fill="white"/>
<path d="M110.306 16.556C111.014 16.688 111.596 17.042 112.052 17.618C112.508 18.194 112.736 18.854 112.736 19.598C112.736 20.27 112.568 20.864 112.232 21.38C111.908 21.884 111.434 22.28 110.81 22.568C110.186 22.856 109.448 23 108.596 23H103.178V10.436H108.362C109.214 10.436 109.946 10.574 110.558 10.85C111.182 11.126 111.65 11.51 111.962 12.002C112.286 12.494 112.448 13.052 112.448 13.676C112.448 14.408 112.25 15.02 111.854 15.512C111.47 16.004 110.954 16.352 110.306 16.556ZM105.698 15.62H108.002C108.602 15.62 109.064 15.488 109.388 15.224C109.712 14.948 109.874 14.558 109.874 14.054C109.874 13.55 109.712 13.16 109.388 12.884C109.064 12.608 108.602 12.47 108.002 12.47H105.698V15.62ZM108.236 20.948C108.848 20.948 109.322 20.804 109.658 20.516C110.006 20.228 110.18 19.82 110.18 19.292C110.18 18.752 110 18.332 109.64 18.032C109.28 17.72 108.794 17.564 108.182 17.564H105.698V20.948H108.236ZM114.096 17.978C114.096 16.97 114.294 16.076 114.69 15.296C115.098 14.516 115.644 13.916 116.328 13.496C117.024 13.076 117.798 12.866 118.65 12.866C119.394 12.866 120.042 13.016 120.594 13.316C121.158 13.616 121.608 13.994 121.944 14.45V13.028H124.482V23H121.944V21.542C121.62 22.01 121.17 22.4 120.594 22.712C120.03 23.012 119.376 23.162 118.632 23.162C117.792 23.162 117.024 22.946 116.328 22.514C115.644 22.082 115.098 21.476 114.69 20.696C114.294 19.904 114.096 18.998 114.096 17.978ZM121.944 18.014C121.944 17.402 121.824 16.88 121.584 16.448C121.344 16.004 121.02 15.668 120.612 15.44C120.204 15.2 119.766 15.08 119.298 15.08C118.83 15.08 118.398 15.194 118.002 15.422C117.606 15.65 117.282 15.986 117.03 16.43C116.79 16.862 116.67 17.378 116.67 17.978C116.67 18.578 116.79 19.106 117.03 19.562C117.282 20.006 117.606 20.348 118.002 20.588C118.41 20.828 118.842 20.948 119.298 20.948C119.766 20.948 120.204 20.834 120.612 20.606C121.02 20.366 121.344 20.03 121.584 19.598C121.824 19.154 121.944 18.626 121.944 18.014ZM132.469 12.884C133.657 12.884 134.617 13.262 135.349 14.018C136.081 14.762 136.447 15.806 136.447 17.15V23H133.927V17.492C133.927 16.7 133.729 16.094 133.333 15.674C132.937 15.242 132.397 15.026 131.713 15.026C131.017 15.026 130.465 15.242 130.057 15.674C129.661 16.094 129.463 16.7 129.463 17.492V23H126.943V13.028H129.463V14.27C129.799 13.838 130.225 13.502 130.741 13.262C131.269 13.01 131.845 12.884 132.469 12.884ZM144.748 23L141.364 18.752V23H138.844V9.68H141.364V17.258L144.712 13.028H147.988L143.596 18.032L148.024 23H144.748Z" fill="#5CE1E6"/>
<path d="M16 0C13.6037 -2.85757e-08 11.238 0.538258 9.07756 1.57503C6.91714 2.6118 5.01719 4.1206 3.518 5.99002C2.01881 7.85945 0.958675 10.0417 0.415875 12.3758C-0.126924 14.7098 -0.138524 17.1359 0.381932 19.475C0.902387 21.8142 1.94161 24.0065 3.42285 25.8902C4.90409 27.7738 6.78953 29.3007 8.93994 30.3581C11.0903 31.4155 13.4508 31.9764 15.847 31.9993C18.2432 32.0222 20.614 31.5066 22.7842 30.4905L19.3921 23.2453C18.307 23.7533 17.1216 24.0111 15.9235 23.9996C14.7254 23.9882 13.5452 23.7077 12.47 23.1791C11.3948 22.6504 10.452 21.8869 9.71142 20.9451C8.9708 20.0032 8.45119 18.9071 8.19097 17.7375C7.93074 16.568 7.93654 15.3549 8.20794 14.1879C8.47934 13.0209 9.0094 11.9297 9.759 10.995C10.5086 10.0603 11.4586 9.3059 12.5388 8.78751C13.619 8.26913 14.8018 8 16 8L16 0Z" fill="#5CE1E6"/>
<path d="M22.4548 1.35982C20.5323 0.512153 18.4616 0.0514712 16.3609 0.00407172C14.2603 -0.0433277 12.1709 0.323484 10.2121 1.08356C8.25323 1.84364 6.46327 2.9821 4.94439 4.43395C3.42552 5.88579 2.20748 7.62258 1.35981 9.54516L8.67991 12.7726C9.10374 11.8113 9.71276 10.9429 10.4722 10.217C11.2316 9.49105 12.1266 8.92182 13.106 8.54178C14.0855 8.16174 15.1302 7.97834 16.1805 8.00204C17.2308 8.02574 18.2661 8.25608 19.2274 8.67991L22.4548 1.35982Z" fill="#5CE1E6"/>
<path d="M21 16C21 17.3261 20.4732 18.5979 19.5355 19.5355C18.5979 20.4732 17.3261 21 16 21C14.6739 21 13.4021 20.4732 12.4645 19.5355C11.5268 18.5979 11 17.3261 11 16L16 16H21Z" fill="white"/>
<path d="M21 16C21 15.3434 20.8707 14.6932 20.6194 14.0866C20.3681 13.48 19.9998 12.9288 19.5355 12.4645C19.0712 12.0002 18.52 11.6319 17.9134 11.3806C17.3068 11.1293 16.6566 11 16 11C15.3434 11 14.6932 11.1293 14.0866 11.3806C13.48 11.6319 12.9288 12.0002 12.4645 12.4645C12.0002 12.9288 11.6319 13.48 11.3806 14.0866C11.1293 14.6932 11 15.3434 11 16L16 16H21Z" fill="white"/>
</svg>
